<?xml version="1.0" encoding="utf-8"?>
<!-- Generator: Adobe Illustrator 18.0.0, SVG Export Plug-In . SVG Version: 6.00 Build 0)  -->
<!DOCTYPE svg PUBLIC "-//W3C//DTD SVG 1.0//EN" "http://www.w3.org/TR/2001/REC-SVG-20010904/DTD/svg10.dtd">
<svg version="1.0" id="Layer_1" xmlns="http://www.w3.org/2000/svg" xmlns:xlink="http://www.w3.org/1999/xlink" x="0px" y="0px"
	 viewBox="0 0 446.3 116.3" enable-background="new 0 0 446.3 116.3" xml:space="preserve">
<rect x="154" fill="#1B334B" width="292.3" height="116.3"/>
<rect y="1" fill="none" stroke="#1B334B" stroke-miterlimit="10" width="279" height="115"/>
<g>
	<path fill="#1B334B" stroke="#1B334B" stroke-miterlimit="10" d="M79.5,92.3c-5.6,1.9-16.3,4.6-27,4.6c-14.8,0-25.4-3.7-32.9-10.9
		C12.2,79,8.1,68.4,8.2,56.5c0.1-26.9,19.7-42.2,46.2-42.2c10.4,0,18.5,2,22.4,4L73,32.9c-4.4-1.9-10-3.5-18.8-3.5
		c-15.2,0-26.8,8.6-26.8,26.2c0,16.7,10.4,26.5,25.4,26.5c4.2,0,7.6-0.5,9-1.2V64H49.4V49.7h30.1V92.3z"/>
	<path fill="#1B334B" stroke="#1B334B" stroke-miterlimit="10" d="M86.6,16.2c5.9-1,14.6-1.7,24.4-1.7c12,0,20.4,1.8,26.2,6.4
		c4.8,3.8,7.4,9.5,7.4,16.9c0,10.3-7.3,17.4-14.3,19.9v0.4c5.6,2.3,8.8,7.7,10.8,15.1c2.5,9.1,5,19.7,6.6,22.8h-18.7
		c-1.3-2.3-3.2-8.9-5.6-18.8c-2.2-10.1-5.6-12.8-13.1-13h-5.5V96H86.6V16.2z M104.7,51h7.2c9.1,0,14.5-4.6,14.5-11.6
		c0-7.4-5-11.2-13.4-11.3c-4.4,0-7,0.4-8.3,0.6V51z"/>
</g>
<g>
	<path fill="#FFFFFF" d="M206.7,49.1c-2.6,1-7.6,2.3-13,2.3c-6.8,0-12-1.7-15.8-5.4c-3.6-3.4-5.7-8.8-5.6-14.9
		c0-12.8,9.1-21,22.5-21c5,0,8.9,1,10.7,1.9l-1.6,5.9c-2.2-1-4.9-1.7-9.2-1.7c-8.6,0-14.7,5.1-14.7,14.5c0,9.2,5.6,14.6,14,14.6
		c2.6,0,4.6-0.4,5.6-0.8V34.5h-7.1v-5.8h14.3V49.1z"/>
	<path fill="#FFFFFF" d="M215.3,31.2c0-4-0.1-6.8-0.2-9.4h6.4l0.2,5.6h0.2c1.4-4.1,4.9-6.2,8-6.2c0.7,0,1.1,0.1,1.7,0.2v7
		c-0.6-0.1-1.3-0.2-2.2-0.2c-3.5,0-5.9,2.3-6.6,5.6c-0.1,0.7-0.2,1.4-0.2,2.3V51h-7.4V31.2z"/>
	<path fill="#FFFFFF" d="M253.8,51l-0.5-3.2h-0.2c-1.8,2.3-4.9,3.9-8.6,3.9c-5.9,0-9.2-4.3-9.2-8.7c0-7.4,6.5-11.1,17.3-11v-0.5
		c0-1.9-0.8-5.1-5.9-5.1c-2.9,0-5.9,0.9-7.9,2.2l-1.4-4.8c2.2-1.3,5.9-2.6,10.6-2.6c9.4,0,12.1,5.9,12.1,12.3V44
		c0,2.6,0.1,5.2,0.4,7H253.8z M252.8,36.7c-5.2-0.1-10.2,1-10.2,5.5c0,2.9,1.9,4.2,4.2,4.2c2.9,0,5.1-1.9,5.8-4
		c0.2-0.5,0.2-1.1,0.2-1.6V36.7z"/>
	<path fill="#FFFFFF" d="M269,31.5c0-3.8-0.1-7-0.2-9.7h6.5l0.4,4.5h0.1c2.2-3.3,5.6-5.2,10-5.2c6.7,0,12.3,5.8,12.3,14.9
		c0,10.6-6.7,15.7-13.3,15.7c-3.7,0-6.7-1.6-8.2-3.9h-0.1v15.1H269V31.5z M276.4,38.8c0,0.7,0.1,1.4,0.2,2c0.7,3,3.4,5.2,6.5,5.2
		c4.7,0,7.4-3.9,7.4-9.7c0-5.2-2.5-9.4-7.3-9.4c-3.1,0-5.9,2.2-6.6,5.5c-0.2,0.6-0.3,1.3-0.3,1.9V38.8z"/>
	<path fill="#FFFFFF" d="M305.3,8.4h7.4v17.4h0.1c0.9-1.4,2.1-2.5,3.7-3.4c1.4-0.8,3.2-1.3,5-1.3c5,0,10.2,3.3,10.2,12.7V51h-7.4
		V34.6c0-4.3-1.6-7.4-5.6-7.4c-2.9,0-4.9,1.9-5.7,4.1c-0.2,0.6-0.3,1.4-0.3,2.2V51h-7.4V8.4z"/>
	<path fill="#FFFFFF" d="M348.7,13.6c0,2.2-1.6,4-4.2,4c-2.5,0-4.1-1.7-4.1-4c0-2.3,1.7-4,4.1-4C347.1,9.6,348.6,11.3,348.7,13.6z
		 M340.8,51V21.8h7.4V51H340.8z"/>
	<path fill="#FFFFFF" d="M378.9,50.1c-1.6,0.7-4.6,1.5-8.3,1.5c-9.1,0-15.1-5.8-15.1-14.9c0-8.8,6-15.6,16.3-15.6
		c2.7,0,5.5,0.6,7.1,1.4l-1.3,5.5c-1.2-0.5-2.9-1.1-5.6-1.1c-5.6,0-9,4.1-8.9,9.5c0,6,3.9,9.4,8.9,9.4c2.6,0,4.4-0.5,5.8-1.1
		L378.9,50.1z"/>
	<path fill="#FFFFFF" d="M402,51l-0.5-3.2h-0.2c-1.8,2.3-4.9,3.9-8.6,3.9c-5.9,0-9.2-4.3-9.2-8.7c0-7.4,6.5-11.1,17.3-11v-0.5
		c0-1.9-0.8-5.1-5.9-5.1c-2.9,0-5.9,0.9-7.9,2.2l-1.4-4.8c2.2-1.3,5.9-2.6,10.6-2.6c9.4,0,12.1,5.9,12.1,12.3V44
		c0,2.6,0.1,5.2,0.4,7H402z M401,36.7c-5.2-0.1-10.2,1-10.2,5.5c0,2.9,1.9,4.2,4.2,4.2c2.9,0,5.1-1.9,5.8-4c0.2-0.5,0.2-1.1,0.2-1.6
		V36.7z"/>
	<path fill="#FFFFFF" d="M417.2,8.4h7.4V51h-7.4V8.4z"/>
	<path fill="#FFFFFF" d="M174.3,65.1c2.8-0.5,6.9-0.8,11.2-0.8c5.8,0,9.8,1,12.5,3.2c2.2,1.9,3.5,4.7,3.5,8.1
		c0,5.2-3.5,8.8-7.3,10.1v0.2c2.9,1.1,4.6,3.9,5.6,7.8c1.3,5,2.3,9.7,3.2,11.3h-7.6c-0.6-1.2-1.6-4.5-2.7-9.5
		c-1.1-5.3-3.1-7-7.3-7.1h-3.7V105h-7.3V65.1z M181.6,83h4.4c5,0,8.1-2.6,8.1-6.7c0-4.4-3.1-6.5-7.9-6.5c-2.3,0-3.8,0.2-4.6,0.4V83z
		"/>
	<path fill="#FFFFFF" d="M217.1,92.5c0.2,5.3,4.3,7.6,9,7.6c3.4,0,5.9-0.5,8.1-1.3l1.1,5.1c-2.5,1-6,1.8-10.2,1.8
		c-9.5,0-15.1-5.8-15.1-14.8c0-8.1,4.9-15.7,14.3-15.7c9.5,0,12.6,7.8,12.6,14.2c0,1.4-0.1,2.5-0.2,3.1H217.1z M229.9,87.3
		c0.1-2.7-1.1-7.1-6.1-7.1c-4.6,0-6.5,4.1-6.8,7.1H229.9z"/>
	<path fill="#FFFFFF" d="M246.1,98.2c1.7,1,4.9,2.1,7.5,2.1c3.2,0,4.7-1.3,4.7-3.2c0-2-1.2-3-4.8-4.3c-5.7-2-8.1-5.1-8-8.5
		c0-5.2,4.3-9.2,11-9.2c3.2,0,6.1,0.8,7.7,1.7l-1.4,5.2c-1.3-0.7-3.6-1.7-6.2-1.7c-2.6,0-4.1,1.3-4.1,3.1c0,1.9,1.4,2.8,5.1,4.1
		c5.3,1.9,7.7,4.6,7.8,8.9c0,5.3-4.1,9.1-11.9,9.1c-3.5,0-6.7-0.8-8.9-2L246.1,98.2z"/>
	<path fill="#FFFFFF" d="M280.3,92.5c0.2,5.3,4.3,7.6,9,7.6c3.4,0,5.9-0.5,8.1-1.3l1.1,5.1c-2.5,1-6,1.8-10.2,1.8
		c-9.5,0-15.1-5.8-15.1-14.8c0-8.1,4.9-15.7,14.3-15.7c9.5,0,12.6,7.8,12.6,14.2c0,1.4-0.1,2.5-0.2,3.1H280.3z M293.1,87.3
		c0.1-2.7-1.1-7.1-6.1-7.1c-4.6,0-6.5,4.1-6.8,7.1H293.1z"/>
	<path fill="#FFFFFF" d="M326.1,105l-0.5-3.2h-0.2c-1.8,2.3-4.9,3.9-8.6,3.9c-5.9,0-9.2-4.3-9.2-8.7c0-7.4,6.5-11.1,17.3-11v-0.5
		c0-1.9-0.8-5.1-5.9-5.1c-2.9,0-5.9,0.9-7.9,2.2l-1.4-4.8c2.2-1.3,5.9-2.6,10.6-2.6c9.4,0,12.1,5.9,12.1,12.3V98
		c0,2.6,0.1,5.2,0.4,7H326.1z M325.1,90.7c-5.2-0.1-10.2,1-10.2,5.5c0,2.9,1.9,4.2,4.2,4.2c2.9,0,5.1-1.9,5.8-4
		c0.2-0.5,0.2-1.1,0.2-1.6V90.7z"/>
	<path fill="#FFFFFF" d="M343.7,85.2c0-4-0.1-6.8-0.2-9.4h6.4l0.2,5.6h0.2c1.4-4.1,4.9-6.2,8-6.2c0.7,0,1.1,0.1,1.7,0.2v7
		c-0.6-0.1-1.3-0.2-2.2-0.2c-3.5,0-5.9,2.3-6.6,5.6c-0.1,0.7-0.2,1.4-0.2,2.3V105h-7.4V85.2z"/>
	<path fill="#FFFFFF" d="M389.6,104.1c-1.6,0.7-4.6,1.5-8.3,1.5c-9.1,0-15.1-5.8-15.1-14.9c0-8.8,6-15.6,16.3-15.6
		c2.7,0,5.5,0.6,7.1,1.4l-1.3,5.5c-1.2-0.5-2.9-1.1-5.6-1.1c-5.6,0-9,4.1-8.9,9.5c0,6,3.9,9.4,8.9,9.4c2.6,0,4.4-0.5,5.8-1.1
		L389.6,104.1z"/>
	<path fill="#FFFFFF" d="M398.7,62.4h7.4v17.4h0.1c0.9-1.4,2.1-2.5,3.7-3.4c1.4-0.8,3.2-1.3,5-1.3c5,0,10.2,3.3,10.2,12.7V105h-7.4
		V88.6c0-4.3-1.6-7.4-5.6-7.4c-2.9,0-4.9,1.9-5.7,4.1c-0.2,0.6-0.3,1.4-0.3,2.2V105h-7.4V62.4z"/>
</g>
<g>
</g>
<g>
</g>
<g>
</g>
<g>
</g>
<g>
</g>
<g>
</g>
</svg>
